<?xml version="1.0" encoding="UTF-8"?><svg xmlns="http://www.w3.org/2000/svg" viewBox="0 0 140 25"><defs><style>.e{fill:#0cf;}</style></defs><g id="a"/><g id="b"><g id="c"><g><g><path d="M4.42,7.13h6.39V.56h4.42V17.58h-4.42v-6.98H4.42v6.98H0V.56H4.42V7.13Z"/><path d="M23.88,.56V17.58h-4.42V.56h4.42Z"/><path d="M36.92,10.6l5.34,6.98h-5.51l-4.17-6.55h-.06v6.55h-4.42V.56h6.61c1.18,0,2.2,.19,3.08,.56,.9,.4,1.59,.98,2.07,1.74,.51,.78,.77,1.76,.77,2.93,0,.79-.14,1.53-.43,2.22-.31,.69-.73,1.25-1.27,1.69-.55,.45-1.23,.75-2.03,.9Zm-4.39-6.66v4.24h.43c.61,0,1.12-.05,1.54-.15,.46-.13,.82-.35,1.1-.64,.29-.29,.43-.73,.43-1.32s-.14-1.04-.43-1.33c-.28-.29-.65-.51-1.1-.64-.4-.1-.92-.15-1.54-.15h-.43Z"/><path d="M53.35,0c1.24,0,2.42,.21,3.55,.63,1.15,.44,2.15,1.05,3.02,1.83,.85,.76,1.55,1.7,2.08,2.8,.51,1.04,.76,2.2,.76,3.49,0,1.36-.22,2.61-.67,3.75-.47,1.16-1.13,2.16-1.98,3.01-.46,.46-.93,.84-1.41,1.16-.48,.32-1.01,.58-1.58,.8-1.14,.45-2.4,.67-3.77,.67s-2.6-.22-3.75-.67c-1.16-.46-2.16-1.11-3-1.96-.42-.41-.79-.86-1.11-1.34-.32-.48-.61-1.04-.88-1.67-.46-1.15-.68-2.4-.68-3.75,0-.61,.06-1.21,.19-1.8,.13-.59,.32-1.15,.58-1.7,.54-1.12,1.23-2.05,2.07-2.8,.87-.79,1.89-1.4,3.05-1.83,1.09-.42,2.27-.63,3.52-.63Zm0,4.29c-.87,0-1.66,.21-2.39,.63-.76,.44-1.35,.99-1.76,1.65-.43,.72-.65,1.45-.65,2.2,0,.93,.22,1.8,.65,2.6,.44,.8,1.02,1.41,1.74,1.83,.76,.43,1.56,.65,2.41,.65s1.67-.22,2.41-.65c.72-.41,1.3-1.02,1.74-1.83,.43-.78,.65-1.65,.65-2.6,0-.77-.22-1.51-.65-2.2-.42-.67-1.01-1.22-1.76-1.65-.72-.42-1.52-.63-2.39-.63Z"/></g><g><path d="M78.81,.97V6.27c-.43-.59-1-1.05-1.7-1.4-.68-.32-1.41-.47-2.18-.47-.89,0-1.67,.21-2.35,.63-.71,.4-1.25,.97-1.63,1.7-.37,.7-.56,1.5-.56,2.39s.19,1.69,.58,2.39c.4,.73,.94,1.28,1.63,1.65,.72,.39,1.52,.58,2.39,.58,.73,0,1.43-.16,2.09-.47,.68-.35,1.26-.79,1.72-1.33v5.3c-.86,.26-1.61,.47-2.24,.62-.55,.12-1.11,.18-1.66,.18-1.12,0-2.26-.22-3.42-.65-.36-.14-.71-.3-1.04-.48s-.66-.39-.98-.61-.64-.47-.96-.76c-1.82-1.65-2.73-3.79-2.73-6.44,0-1.15,.22-2.27,.66-3.36,.46-1.12,1.07-2.08,1.85-2.87,.6-.6,1.23-1.09,1.9-1.49,.7-.41,1.44-.73,2.23-.95,.81-.21,1.59-.32,2.35-.32,1.32,0,2.66,.29,4.04,.86Z"/><path d="M90.97,0c1.24,0,2.42,.21,3.55,.63,1.15,.44,2.15,1.05,3.02,1.83,.85,.76,1.55,1.7,2.08,2.8,.51,1.04,.76,2.2,.76,3.49,0,1.36-.22,2.61-.67,3.75-.47,1.16-1.13,2.16-1.98,3.01-.46,.46-.93,.84-1.41,1.16s-1.01,.58-1.58,.8c-1.14,.45-2.4,.67-3.77,.67s-2.6-.22-3.75-.67c-1.16-.46-2.16-1.11-3-1.96-.42-.41-.79-.86-1.11-1.34-.32-.48-.61-1.04-.88-1.67-.46-1.15-.68-2.4-.68-3.75,0-.61,.06-1.21,.19-1.8s.32-1.15,.58-1.7c.54-1.12,1.23-2.05,2.07-2.8,.87-.79,1.89-1.4,3.05-1.83,1.09-.42,2.27-.63,3.52-.63Zm0,4.29c-.87,0-1.66,.21-2.39,.63-.76,.44-1.35,.99-1.76,1.65-.43,.72-.65,1.45-.65,2.2,0,.93,.22,1.8,.65,2.6,.44,.8,1.02,1.41,1.74,1.83,.76,.43,1.56,.65,2.41,.65s1.67-.22,2.41-.65c.72-.41,1.3-1.02,1.74-1.83,.43-.78,.65-1.65,.65-2.6,0-.77-.22-1.51-.65-2.2-.42-.67-1.01-1.22-1.76-1.65-.72-.42-1.52-.63-2.39-.63Z"/><path d="M103.78,17.58V.56h6.27c1.15,0,2.27,.22,3.35,.65,1.06,.43,1.98,1.03,2.77,1.81,.82,.79,1.43,1.69,1.85,2.71,.23,.51,.4,1.05,.51,1.6s.17,1.13,.17,1.74c0,1.56-.39,2.99-1.18,4.29-.79,1.32-1.84,2.35-3.15,3.1-.68,.37-1.38,.66-2.09,.84-.71,.19-1.45,.28-2.23,.28h-6.27Zm4.42-13.27V13.83h1c.9,0,1.72-.17,2.48-.52,.76-.35,1.34-.88,1.76-1.58,.43-.73,.65-1.62,.65-2.67,0-1.49-.44-2.66-1.33-3.5-.29-.27-.62-.5-.98-.69-.36-.19-.75-.33-1.17-.42s-.87-.14-1.37-.14h-1.05Z"/><path d="M131.77,4.31h-5.27v2.84h4.99v3.75h-4.99v2.93h5.27v3.75h-9.69V.56h9.69v3.75Z"/><path d="M137.35,12.75c.49,0,.94,.12,1.33,.35,.41,.24,.73,.55,.95,.96,.24,.38,.36,.82,.36,1.32s-.12,.94-.36,1.33c-.22,.41-.54,.73-.95,.95-.39,.24-.83,.36-1.33,.36s-.92-.12-1.31-.36c-.41-.21-.73-.53-.97-.95-.24-.4-.35-.84-.35-1.33,0-.74,.25-1.37,.76-1.87s1.13-.76,1.87-.76Z"/></g><rect id="d" class="e" y="23" width="140" height="2"/></g></g></g></svg>